<?xml version="1.0" encoding="utf-8"?>
<!-- Generator: Adobe Illustrator 24.0.1, SVG Export Plug-In . SVG Version: 6.00 Build 0)  -->
<svg version="1.1" id="Layer_1" xmlns="http://www.w3.org/2000/svg" xmlns:xlink="http://www.w3.org/1999/xlink" x="0px" y="0px"
	 viewBox="0 0 1000 1000" style="enable-background:new 0 0 1000 1000;" xml:space="preserve">
<style type="text/css">
	.st0{fill:#FFFFFF;}
	.st1{font-family:'Swiss721Light';}
	.st2{font-size:116.1773px;}
	.st3{letter-spacing:23;}
</style>
<g>
	<g>
		<path class="st0" d="M55.78,505.42v-151.4h72.46c19.18,0,33.32,3.43,42.4,10.28c9.08,6.85,13.62,17.47,13.62,31.86
			c0,8.5-1.94,15.78-5.81,21.84c-3.87,6.06-9.88,11.15-18.04,15.26c6.65,2.54,11.34,5.98,14.08,10.33
			c2.74,4.35,4.32,12.01,4.73,22.97c0.21,3.08,0.41,7.23,0.62,12.44c0.48,12.2,2.57,19.26,6.27,21.17v5.24h-40.6
			c-1.99-5.34-3.12-12.68-3.39-22c-0.27-9.32-0.55-15.18-0.82-17.58c-0.62-5.89-2.6-10.21-5.96-12.95
			c-3.36-2.74-8.39-4.11-15.11-4.11h-25.9v56.63H55.78z M94.32,418.87h28.88c7.81,0,13.55-1.44,17.22-4.32
			c3.67-2.88,5.5-7.47,5.5-13.77c0-5.55-1.78-9.68-5.34-12.38c-3.56-2.71-9.01-4.06-16.34-4.06H94.32V418.87z"/>
		<path class="st0" d="M250.04,354.02h42.35l53.45,151.4H304.2l-9.25-27.75h-50.57l-8.63,27.75h-40.19L250.04,354.02z
			 M253.64,446.32h33.1l-16.86-52.21L253.64,446.32z"/>
		<path class="st0" d="M474.61,505.42l-3.08-19.53c-5.69,7.95-12.45,13.86-20.3,17.73c-7.85,3.87-17.01,5.81-27.49,5.81
			c-9.8,0-18.86-1.78-27.19-5.34s-15.67-8.8-22.05-15.73c-6.65-7.13-11.68-15.52-15.11-25.18c-3.43-9.66-5.14-20.21-5.14-31.66
			c0-24.73,7.07-44.57,21.22-59.51c14.15-14.94,32.97-22.41,56.48-22.41c17.75,0,32.39,4.45,43.94,13.36
			c11.55,8.91,18.86,21.38,21.94,37.41h-37.1c-2.47-6.51-6.24-11.42-11.31-14.75c-5.07-3.32-11.27-4.98-18.6-4.98
			c-11.1,0-20.08,4.52-26.93,13.57c-6.85,9.04-10.28,21-10.28,35.87c0,14.66,3.37,26.33,10.12,35c6.75,8.67,15.78,13,27.08,13
			c9.04,0,16.53-2.29,22.46-6.89c5.93-4.59,9.61-11,11.05-19.22h-33.71v-29.09h68.25v82.53H474.61z"/>
		<path class="st0" d="M566.6,354.02h42.35l53.45,151.4h-41.63l-9.25-27.75h-50.57l-8.63,27.75h-40.19L566.6,354.02z M570.2,446.32
			h33.09l-16.86-52.21L570.2,446.32z"/>
		<path class="st0" d="M716.87,354.02h42.35l53.45,151.4h-41.63l-9.25-27.75h-50.57l-8.63,27.75h-40.19L716.87,354.02z
			 M720.47,446.32h33.09L736.7,394.1L720.47,446.32z"/>
		<path class="st0" d="M818.93,505.42V475.1l77.29-90.55h-74.31v-30.53h122.31v30.53l-77.29,90.55h77.29v30.32H818.93z"/>
	</g>
	<text transform="matrix(1 0 0 1 179.0039 622.9823)" class="st0 st1 st2 st3">STUDIOS</text>
</g>
</svg>
